<?xml version="1.0" encoding="UTF-8" standalone="no"?>
<!-- Created with Inkscape (http://www.inkscape.org/) -->

<svg
   xmlns:dc="http://purl.org/dc/elements/1.1/"
   xmlns:cc="http://creativecommons.org/ns#"
   xmlns:rdf="http://www.w3.org/1999/02/22-rdf-syntax-ns#"
   xmlns:svg="http://www.w3.org/2000/svg"
   xmlns="http://www.w3.org/2000/svg"
   xmlns:sodipodi="http://sodipodi.sourceforge.net/DTD/sodipodi-0.dtd"
   xmlns:inkscape="http://www.inkscape.org/namespaces/inkscape"
   id="svg2"
   version="1.1"
   inkscape:version="0.48.5 r10040"
   width="1000"
   height="566.25"
   xml:space="preserve"
   sodipodi:docname="aultfarms_logo.ai"><metadata
     id="metadata8"><rdf:RDF><cc:Work
         rdf:about=""><dc:format>image/svg+xml</dc:format><dc:type
           rdf:resource="http://purl.org/dc/dcmitype/StillImage" /><dc:title></dc:title></cc:Work></rdf:RDF></metadata><defs
     id="defs6"><clipPath
       clipPathUnits="userSpaceOnUse"
       id="clipPath16"><path
         d="M 0,453 800,453 800,0 0,0 0,453 z"
         id="path18" /></clipPath><clipPath
       clipPathUnits="userSpaceOnUse"
       id="clipPath156"><path
         d="M 0,453 800,453 800,0 0,0 0,453 z"
         id="path158" /></clipPath></defs><sodipodi:namedview
     pagecolor="#ffffff"
     bordercolor="#666666"
     borderopacity="1"
     objecttolerance="10"
     gridtolerance="10"
     guidetolerance="10"
     inkscape:pageopacity="0"
     inkscape:pageshadow="2"
     inkscape:window-width="640"
     inkscape:window-height="480"
     id="namedview4"
     showgrid="false"
     inkscape:zoom="0.392"
     inkscape:cx="500"
     inkscape:cy="283.125"
     inkscape:window-x="230"
     inkscape:window-y="112"
     inkscape:window-maximized="0"
     inkscape:current-layer="g10" /><g
     id="g10"
     inkscape:groupmode="layer"
     inkscape:label="aultfarms_logo"
     transform="matrix(1.25,0,0,-1.25,0,566.25)"><g
       id="g12"><g
         id="g14"
         clip-path="url(#clipPath16)"><g
           id="g20"
           transform="translate(788.5098,221.6851)"><path
             d="m 0,0 c 0,-2.644 0.344,-5.16 -1.385,-7.01 -3.5,-1.675 -6.527,-3.53 -9.94,-3.53 l -301.109,0 c -2.883,0 -6.169,0.455 -8.168,2.105 -2.337,1.931 -3.158,5.297 -3.158,8.435 l 0,198.529 c 0,5.817 5.071,10.536 11.326,10.536 l 301.299,0.625 c 4.086,0 5.065,-0.309 7,-3.514 0.21,-0.933 1.079,-2.772 1.191,-4.441 0.125,-1.884 -0.495,-3.61 0,-4.67 L 0,0 z"
             style="fill:#373771;fill-opacity:1;fill-rule:evenodd;stroke:none"
             id="path22" /></g><g
           id="g24"
           transform="translate(784.3994,223.5938)"><path
             d="M 0,0 -90.108,79.47 -74.88,80.026 0.941,28.467 2.018,2.219 2.196,-0.426 1.925,-1.325 0,0 z"
             style="fill:#1a8655;fill-opacity:1;fill-rule:evenodd;stroke:none"
             id="path26" /></g><g
           id="g28"
           transform="translate(737.8887,303.3633)"><path
             d="M 0,0 26.975,0.765 28.049,0.297 29.125,0.168 46.107,-6.873 48.078,-8.28 48.171,-23.735 0.938,-0.854 0,0 z"
             style="fill:#1a8655;fill-opacity:1;fill-rule:evenodd;stroke:none"
             id="path30" /></g><g
           id="g32"
           transform="translate(785.5654,319)"><path
             d="m 0,0 0.175,-12.999 -0.622,-0.126 -2.06,-0.125 -73.715,-0.17 -2.422,-0.212 -16.488,-0.303 -2.329,-0.079 -8.872,0.167 -0.495,2.052 10.173,1.919 L 0.09,6.216 0,0 z"
             style="fill:#fff215;fill-opacity:1;fill-rule:evenodd;stroke:none"
             id="path34" /></g><g
           id="g36"
           transform="translate(780.0059,214.2051)"><path
             d="m 0,0 c -6.684,-1.361 -27.286,0.038 -27.286,0.038 l -72.727,88.436 10.169,0.6 L 6.097,5.119 c 0,0 0.329,-1.982 0,-2.518 C 5.229,1.188 1.624,0.331 0,0"
             style="fill:#a2c578;fill-opacity:1;fill-rule:evenodd;stroke:none"
             id="path38" /></g><g
           id="g40"
           transform="translate(786.0596,275.9194)"><path
             d="M 0,0 -0.809,-21.21 -72.1,26.504 -72.995,27.483 -54.983,27.612 0,0 z"
             style="fill:#a2c578;fill-opacity:1;fill-rule:evenodd;stroke:none"
             id="path42" /></g><g
           id="g44"
           transform="translate(786.0156,299.9048)"><path
             d="m 0,0 -0.136,-2.644 -13.891,5.93 -0.9,0.682 L -2.335,4.1 -0.269,3.458 0,0 z"
             style="fill:#a2c578;fill-opacity:1;fill-rule:evenodd;stroke:none"
             id="path46" /></g><g
           id="g48"
           transform="translate(784.6279,376.3018)"><path
             d="m 0,0 0.49,-48.57 -37.732,-6.571 -33.65,-4.911 -35.399,-6.829 -1.307,5.21 L 0.447,0.555 0,0 z"
             style="fill:#ffcf29;fill-opacity:1;fill-rule:evenodd;stroke:none"
             id="path50" /></g><g
           id="g52"
           transform="translate(784.3857,383.3237)"><path
             d="m 0,0 -0.136,-2.563 -105.913,-62.845 -1.796,-1.166 -3.446,8.593 L -1.238,40.097 0,0 z"
             style="fill:#fff215;fill-opacity:1;fill-rule:evenodd;stroke:none"
             id="path54" /></g><g
           id="g56"
           transform="translate(781.9805,428.2456)"><path
             d="m 0,0 c 0.249,-0.265 -0.089,-1.452 -0.089,-1.452 l -109.875,-99.062 -5.195,7.64 63.897,93.984 c 0,0 38.532,0.77 50.052,0.127 C -0.778,1.213 0,0 0,0"
             style="fill:#ffcf29;fill-opacity:1;fill-rule:evenodd;stroke:none"
             id="path58" /></g><g
           id="g60"
           transform="translate(749.8945,214.6753)"><path
             d="M 0,0 -0.492,-0.685 -57.4,0.338 -86.259,87.789 -73.575,88.433 0,0 z"
             style="fill:#1a8655;fill-opacity:1;fill-rule:evenodd;stroke:none"
             id="path62" /></g><g
           id="g64"
           transform="translate(727.4482,428.9712)"><path
             d="m 0,0 0,-0.085 -39.301,-59.241 -21.548,-31.241 -1.013,-1.654 -7.683,5.621 34.413,86.383 L -1.928,0.467 0,0 z"
             style="fill:#fff215;fill-opacity:1;fill-rule:evenodd;stroke:none"
             id="path66" /></g><g
           id="g68"
           transform="translate(689.7637,215.5708)"><path
             d="m 0,0 0,-0.472 -36.164,-0.424 -7.662,87.917 14.613,0.087 L -17.166,54.116 0,0 z"
             style="fill:#a2c578;fill-opacity:1;fill-rule:evenodd;stroke:none"
             id="path70" /></g><g
           id="g72"
           transform="translate(688.7773,428.6274)"><path
             d="m 0,0 -32.041,-84.466 -0.483,-1.023 -9.353,2.945 0.519,2.133 12.004,79.947 L 0,0 z"
             style="fill:#ffcf29;fill-opacity:1;fill-rule:evenodd;stroke:none"
             id="path74" /></g><g
           id="g76"
           transform="translate(676.541,305.5)"><path
             d="m 0,0 -2.598,-0.39 -87.736,-0.168 c 0,0 1.879,12.549 4.612,15.919 0.606,0.747 1.448,2.496 1.929,3.329 0.314,0.543 0.865,1.684 1.255,2.175 2.309,2.911 7.698,8.185 10.846,10.158 4.606,2.889 12.071,6.616 20.297,7.815 0.58,0.085 1.708,0.419 2.287,0.511 1.879,0.299 5.672,0.682 7.574,0.723 0.672,0.014 2.021,-0.001 2.688,-0.085 4.396,-0.557 13.157,-2.297 17.294,-3.882 0.612,-0.234 1.75,-0.902 2.284,-1.281 1.89,-1.343 5.459,-4.366 6.948,-6.142 2.65,-3.164 6.906,-10.328 8.602,-14.091 1.189,-2.635 3.022,-8.185 3.406,-11.05 C -0.263,3.18 0,0.894 0,0.894 L 0,0 z"
             style="fill:#fff215;fill-opacity:1;fill-rule:evenodd;stroke:none"
             id="path78" /></g><g
           id="g80"
           transform="translate(656.5107,427.9897)"><path
             d="m 0,0 -11.199,-81.518 -8.023,1.445 0,2.95 0.852,76.868 9.725,0.34 0.939,-0.214 1.076,0.346 5.196,0.212 L 0,0 z"
             style="fill:#fff215;fill-opacity:1;fill-rule:evenodd;stroke:none"
             id="path82" /></g><g
           id="g84"
           transform="translate(651.4971,217.9165)"><path
             d="m 0,0 -0.138,-3.074 -52.157,-0.167 24.016,85.826 1.524,2.393 L -7.799,84.719 0,0 z"
             style="fill:#1a8655;fill-opacity:1;fill-rule:evenodd;stroke:none"
             id="path86" /></g><g
           id="g88"
           transform="translate(636.3496,369.9868)"><path
             d="m 0,0 -0.895,-21.726 -8.919,-0.938 -14.832,80.153 22.625,0.385 1.347,-0.256 L 0,0 z"
             style="fill:#ffcf29;fill-opacity:1;fill-rule:evenodd;stroke:none"
             id="path90" /></g><g
           id="g92"
           transform="translate(623.623,349.8862)"><path
             d="m 0,0 0.403,-2.563 -7.621,-2.348 -27.465,81.519 -0.049,1.496 20.036,-0.386 L 0,0 z"
             style="fill:#fff215;fill-opacity:1;fill-rule:evenodd;stroke:none"
             id="path94" /></g><g
           id="g96"
           transform="translate(621.876,302.6353)"><path
             d="M 0,0 -25.59,-88.219 -65.917,-87.834 -19.983,0.088 0,0 z"
             style="fill:#a2c578;fill-opacity:1;fill-rule:evenodd;stroke:none"
             id="path98" /></g><g
           id="g100"
           transform="translate(614.5693,344.5488)"><path
             d="M 0,0 -7.355,-3.569 -39.296,59.282 -51.752,83.697 -28.141,83.614 0,0 z"
             style="fill:#ffcf29;fill-opacity:1;fill-rule:evenodd;stroke:none"
             id="path102" /></g><g
           id="g104"
           transform="translate(529.6133,427.7759)"><path
             d="m 0,0 29.798,0.681 45.342,-88.54 -2.953,-2.068 -2.69,-2.091 L 0,0 z"
             style="fill:#fff215;fill-opacity:1;fill-rule:evenodd;stroke:none"
             id="path106" /></g><g
           id="g108"
           transform="translate(598.3477,302.5913)"><path
             d="m 0,0 -45.796,-88.09 -51.485,0.556 84.155,87.196 1.074,0.514 L 0,0 z"
             style="fill:#1a8655;fill-opacity:1;fill-rule:evenodd;stroke:none"
             id="path110" /></g><g
           id="g112"
           transform="translate(597.2305,333.7495)"><path
             d="M 0,0 -4.93,-5.889 -107.229,94.669 -70.578,94.026 0,0 z"
             style="fill:#ffcf29;fill-opacity:1;fill-rule:evenodd;stroke:none"
             id="path114" /></g><g
           id="g116"
           transform="translate(590.5029,325.917)"><path
             d="m 0,0 -3.624,-5.867 -28.323,20.617 -90.694,62.527 c 0,0 -0.755,13.431 -0.49,18.777 0.066,1.309 1.483,3.734 2.417,4.653 0.634,0.623 3.185,1.583 3.185,1.583 l 13.84,0.379 L -0.396,0.707 0,0 z"
             style="fill:#fff215;fill-opacity:1;fill-rule:evenodd;stroke:none"
             id="path118" /></g><g
           id="g120"
           transform="translate(467.6387,401.186)"><path
             d="m 0,0 95.58,-66.284 22.988,-17.235 -1.525,-5.769 L 0.224,-44.174 0,0 z"
             style="fill:#ffcf29;fill-opacity:1;fill-rule:evenodd;stroke:none"
             id="path122" /></g><g
           id="g124"
           transform="translate(583.3828,305.0244)"><path
             d="m 0,0 -115.431,12.125 0.224,36.959 L 0.271,3.97 0,0 z"
             style="fill:#fff215;fill-opacity:1;fill-rule:evenodd;stroke:none"
             id="path126" /></g><g
           id="g128"
           transform="translate(581.458,302.3354)"><path
             d="m 0,0 -84.204,-87.534 c 0,0 -21.352,-3.293 -27.254,0.324 -1.125,0.689 -1.832,2.931 -2.092,4.125 -1.027,4.725 -0.133,19.24 -0.133,19.24 L -15.012,0.256 -1.659,0.388 0,0 z"
             style="fill:#a2c578;fill-opacity:1;fill-rule:evenodd;stroke:none"
             id="path130" /></g><g
           id="g132"
           transform="translate(562.5488,302.4238)"><path
             d="m 0,0 -1.08,-1.411 -93.561,-60.263 0,27.103 1.703,1.452 L -21.243,0.123 0,0 z"
             style="fill:#1a8655;fill-opacity:1;fill-rule:evenodd;stroke:none"
             id="path134" /></g><g
           id="g136"
           transform="translate(559.7646,304.3867)"><path
             d="m 0,0 -0.042,-0.047 -91.635,0.346 0.135,9.56 L 0,0 z"
             style="fill:#ffcf29;fill-opacity:1;fill-rule:evenodd;stroke:none"
             id="path138" /></g><g
           id="g140"
           transform="translate(535.4336,302.3794)"><path
             d="m 0,0 0.047,-0.082 -67.349,-31.371 -0.223,16.175 44.451,15.196 L 0,0 z"
             style="fill:#a2c578;fill-opacity:1;fill-rule:evenodd;stroke:none"
             id="path142" /></g><g
           id="g144"
           transform="translate(505.7734,302.4644)"><path
             d="m 0,0 -1.303,-0.899 -36.339,-12.034 -0.09,11.056 5.243,2.048 L 0,0 z"
             style="fill:#1a8655;fill-opacity:1;fill-rule:evenodd;stroke:none"
             id="path146" /></g><g
           id="g148"
           transform="translate(467.5264,307.6636)"><path
             d="M 0,0 2.827,0.857 2.951,0.696 1.064,-0.042 0,0 z"
             style="fill:#a2c578;fill-opacity:1;fill-rule:evenodd;stroke:none"
             id="path150" /></g></g></g><g
       id="g152"><g
         id="g154"
         clip-path="url(#clipPath156)"><g
           id="g160"
           transform="translate(137.3789,333.8755)"><path
             d="m 0,0 c -0.217,17.949 -5.259,52.987 -6.557,69.855 -9.948,-18.381 -23.571,-43.25 -37.842,-70.28 l 35.463,0 c 2.163,0 7.207,0.209 8.936,0.425 m -91.326,-71.785 c -7.136,0 -11.028,2.594 -11.028,7.567 0,3.028 1.082,6.704 3.46,11.245 15.785,28.761 36.762,64.009 57.305,98.391 8.434,14.273 18.381,30.276 28.112,48.007 7.785,5.839 14.299,8.434 24.03,7.353 6.055,-0.649 9.299,-5.839 9.731,-15.354 0,-4.973 0,-11.028 0.216,-17.948 0,-7.352 0.649,-13.623 0.649,-19.03 0.649,-7.569 34.975,-270.193 35.501,-277.323 0.419,-5.689 0.836,-14.886 2.5,-24.833 0.643,-3.845 2.874,-16.316 11.426,-21.5 3.574,-2.167 11.24,-3.5 19.407,-1.167 11.808,3.373 19.922,6.239 21,8.5 -6.997,-14.673 -14.823,-22.298 -19.5,-25.667 -16.601,-11.96 -32.508,-9.896 -37.499,-8.001 -11.326,4.299 -17.356,21.317 -19.303,35.804 -1.946,11.895 -22.201,189.942 -33.792,249.363 -0.023,0.118 -10.474,-1.779 -13.718,-1.779 -11.893,-0.433 -23.57,-0.648 -35.032,-0.648 -5.837,-3.028 -8.001,-5.839 -10.163,-9.948 -3.027,-4.325 -6.487,-11.893 -9.082,-17.3 -2.811,-6.92 -5.839,-14.704 -4.109,-22.057 -6.488,-2.377 -13.191,-3.675 -20.111,-3.675"
             style="fill:#373771;fill-opacity:1;fill-rule:nonzero;stroke:none"
             id="path162" /></g><g
           id="g164"
           transform="translate(297.3223,374.3135)"><path
             d="M 0,0 C 0,-4.542 -1.081,-9.947 -2.811,-16.219 -8.65,-37.41 -15.57,-58.603 -15.57,-73.956 c 0,-4.325 1.298,-7.352 2.379,-9.299 6.055,1.298 21.192,18.597 23.571,18.597 0.864,0 1.298,-0.648 1.298,-1.946 0,-15.568 -22.923,-39.356 -38.492,-39.356 -12.109,0 -19.246,7.569 -19.246,23.138 0,5.839 0.865,10.813 1.946,16.651 -16.65,-27.247 -32.868,-41.736 -50.385,-41.736 -16.002,0 -18.814,11.245 -18.814,22.275 0,16.866 15.571,65.522 15.571,81.74 0,3.675 -0.433,7.784 -2.163,11.029 7.785,3.027 15.57,4.54 21.192,4.54 9.948,0 12.542,-5.406 12.542,-11.894 0,-4.325 -1.297,-9.298 -2.162,-13.19 -6.92,-30.275 -14.056,-55.143 -14.056,-65.739 0,-2.811 0.865,-5.622 4.109,-5.622 6.055,0 19.462,14.921 31.355,36.329 11.029,20.111 16.651,38.059 16.651,49.736 0,2.379 -0.432,5.191 -1.513,7.353 5.622,1.946 13.19,3.027 18.596,3.027 C -6.271,11.246 0,8.867 0,0"
             style="fill:#373771;fill-opacity:1;fill-rule:nonzero;stroke:none"
             id="path166" /></g><g
           id="g168"
           transform="translate(349.6436,349.0122)"><path
             d="m 0,0 c 4.758,6.92 10.596,16.652 15.138,27.463 4.54,10.165 8.434,20.544 9.298,28.762 0.217,3.027 0.433,5.838 0.217,8.001 0,2.162 -2.812,3.027 -3.893,1.081 C 20.111,64.226 19.462,62.928 19.03,61.631 15.354,51.9 12.11,42.168 9.299,32.438 5.839,21.841 2.812,10.813 0,0 m 8.001,-53.628 c 9.732,7.136 17.3,13.19 19.462,13.19 1.731,0 0,-4.107 -6.703,-14.92 -9.947,-15.569 -31.356,-26.382 -42.168,-26.382 -11.461,0 -19.246,6.271 -19.246,19.679 -0.217,4.757 0.65,9.946 1.946,18.164 0.433,1.73 0.649,3.676 0.866,5.622 -7.785,-5.622 -11.03,-7.785 -11.678,-7.785 -0.865,0 4.109,4.541 10.597,10.164 -0.217,-0.215 0.431,0.432 1.945,1.73 8.001,34.166 17.516,68.982 27.68,102.716 1.081,3.244 3.892,6.92 7.353,9.299 3.46,2.379 7.351,3.026 10.595,2.811 6.271,-0.432 12.327,-2.163 18.381,-6.703 0.865,-0.866 1.513,-1.946 1.73,-3.245 0,-0.215 0.649,-2.811 0.649,-7.784 0,-2.162 0,-4.757 -0.432,-7.569 C 27.896,46.277 23.787,35.465 19.246,24.869 11.894,8.001 1.081,-6.703 -3.027,-12.109 l -0.216,-1.297 c -0.433,-1.946 -0.865,-4.11 -1.515,-6.272 -1.513,-6.92 -5.405,-24.867 -5.405,-30.274 0,-4.325 1.081,-7.136 2.163,-9.083 5.838,0.217 11.46,2.164 16.001,5.407"
             style="fill:#373771;fill-opacity:1;fill-rule:nonzero;stroke:none"
             id="path170" /></g><g
           id="g172"
           transform="translate(459.4883,374.3135)"><path
             d="m 0,0 c 0,-10.164 -8.217,-17.3 -18.166,-17.3 -4.324,0 -8.432,0.217 -12.324,0.217 -1.731,0 -3.244,0 -4.975,-0.433 -2.162,-10.38 -4.756,-22.057 -7.785,-33.518 -1.729,-6.487 -3.459,-16.003 -3.459,-23.137 0.432,-6.705 3.244,-10.38 8.434,-10.38 2.595,0 7.136,4.107 11.029,8.216 6.92,7.353 11.027,11.029 13.191,11.029 0.866,0 1.082,-0.648 1.082,-1.946 0,-15.57 -22.707,-39.357 -38.277,-39.357 -17.948,0 -25.083,10.812 -25.083,28.112 0,4.326 0.647,8.867 1.297,13.407 2.162,12.759 2.81,16.434 7.136,34.383 4.756,18.165 9.73,40.438 9.73,52.98 0,4.109 -0.432,7.568 -2.378,11.895 9.081,5.188 16.435,7.134 23.355,7.134 6.918,0 10.595,-4.108 10.595,-10.594 0,0.647 -1.082,-9.732 -5.191,-30.925 l 11.246,0 c 6.488,0 13.191,0.433 20.543,1.514 L 0,0 z"
             style="fill:#373771;fill-opacity:1;fill-rule:nonzero;stroke:none"
             id="path174" /></g><g
           id="g176"
           transform="translate(266.125,161.3857)"><path
             d="m 0,0 c 16.649,0 36.979,1.295 44.546,3.675 0,-15.569 -9.082,-21.839 -15.785,-22.488 -9.083,-0.648 -20.328,-1.729 -33.518,-1.729 -3.029,0 -6.273,0 -9.299,-0.433 -1.082,-3.028 -1.731,-6.271 -2.596,-9.514 -5.621,-24.87 -8.434,-38.924 -8.434,-47.36 0,-4.325 2.163,-8.432 2.163,-10.81 -4.973,-3.461 -13.84,-5.192 -21.192,-5.192 -10.596,0 -14.055,3.679 -14.055,11.677 0,4.975 1.08,10.164 2.378,15.57 1.946,8.653 3.677,17.083 5.838,25.734 10.814,41.085 19.679,72.224 19.679,90.389 0,3.245 0.217,7.136 -1.08,6.705 -2.812,-0.651 -5.624,-0.651 -6.921,-0.651 -0.649,0.218 -0.864,1.299 -0.649,3.679 0,1.945 0.433,4.106 1.298,6.054 3.893,7.785 5.623,9.298 12.327,9.948 18.163,1.729 36.544,2.593 54.925,2.593 8.649,0 16.65,0.865 22.706,0.865 8.65,0 12.11,-0.865 14.92,-3.891 -1.513,-10.379 -7.568,-22.49 -17.083,-22.49 -2.595,0 -6.703,5.405 -18.165,5.405 l -8.001,0 c -6.054,0 -11.677,0.434 -16.217,0.434 l -9.949,0 C 0,55.791 0.865,53.628 0.865,51.249 c 0,-1.296 0,-2.164 -0.217,-3.674 C -1.73,35.464 -6.055,15.785 -9.948,0 L 0,0 z"
             style="fill:#373771;fill-opacity:1;fill-rule:nonzero;stroke:none"
             id="path178" /></g><g
           id="g180"
           transform="translate(382.4595,159.873)"><path
             d="m 0,0 c -2.378,8.866 -10.597,12.543 -17.3,12.543 -17.3,0 -34.599,-41.52 -34.599,-69.634 0.432,-7.566 2.594,-11.242 7.135,-11.242 4.542,0 11.03,7.351 19.463,19.892 C -14.273,-32.438 -4.758,-13.193 0,0 m 43.896,-49.522 c 0.867,0 1.084,-0.648 1.084,-1.947 0,-15.786 -22.924,-39.354 -38.276,-39.354 -11.894,0 -19.246,7.35 -19.246,22.923 0,5.189 0.432,12.973 1.082,17.512 -16.22,-26.382 -32.006,-40.003 -46.277,-40.653 l -2.379,0 c -17.301,0 -23.356,12.758 -23.356,30.492 0.866,41.735 33.519,89.309 68.334,89.309 8.435,0 15.57,-1.732 21.192,-6.055 3.46,3.676 8.217,5.619 13.625,5.619 6.701,0 12.973,-1.943 19.244,-5.186 -8,-11.894 -21.193,-65.305 -21.193,-81.956 0,-4.326 1.516,-7.135 2.379,-9.082 2.379,0.429 6.488,3.458 10.598,7.567 6.701,7.353 11.029,10.811 13.189,10.811"
             style="fill:#373771;fill-opacity:1;fill-rule:nonzero;stroke:none"
             id="path182" /></g><g
           id="g184"
           transform="translate(514.791,188.416)"><path
             d="m 0,0 c 6.703,0 9.08,-4.107 9.08,-10.378 0,-9.947 -6.267,-20.976 -14.92,-30.708 -2.162,3.458 -4.971,5.407 -8.215,5.407 -17.302,0 -30.709,-33.301 -45.845,-71.147 -3.028,-7.782 -6.922,-11.893 -17.733,-11.893 -4.326,0 -9.73,0.65 -16.867,1.948 16.65,42.6 24.219,81.092 24.219,96.228 0,5.624 -0.649,10.596 -2.379,14.272 9.515,4.109 17.084,6.052 22.709,6.052 6.701,0 11.459,-4.105 11.459,-11.026 0,-8.65 -3.244,-21.192 -6.92,-35.679 C -29.193,-18.38 -14.055,-0.219 -1.082,0 L 0,0 z"
             style="fill:#373771;fill-opacity:1;fill-rule:nonzero;stroke:none"
             id="path186" /></g><g
           id="g188"
           transform="translate(655.5586,117.7061)"><path
             d="m 0,0 c 5.408,24.219 8.219,38.06 8.219,40.438 0,2.812 -1.082,3.673 -3.244,3.673 -9.731,0 -43.248,-54.277 -48.44,-82.388 0,-1.511 0.217,-3.029 0.867,-4.974 -2.164,-1.728 -9.732,-4.542 -15.138,-4.542 -6.27,0 -11.028,2.162 -15.137,6.487 9.947,41.954 18.166,73.959 18.166,81.744 0,3.025 -1.299,3.892 -3.461,3.892 -5.838,-0.219 -17.082,-16.22 -27.898,-32.221 -7.135,-10.595 -11.676,-22.492 -22.272,-48.008 -3.244,-7.785 -6.703,-11.894 -17.732,-11.894 -4.325,0 -9.733,0.65 -16.868,1.947 17.084,42.168 24.438,81.958 24.438,96.231 0,5.185 -0.865,10.163 -2.596,14.271 9.514,4.11 17.084,6.054 22.705,6.054 6.487,0 11.678,-3.892 11.678,-10.596 0,-8.216 -3.244,-20.758 -7.135,-35.895 19.895,30.922 40.868,47.138 54.278,47.138 8.215,0 14.92,-4.539 14.92,-14.053 0,-11.029 -1.731,-23.14 -4.975,-32.655 19.896,31.789 41.086,46.708 53.631,46.708 8.648,0 14.703,-7.134 14.703,-15.566 0,-23.79 -13.621,-57.74 -13.621,-72.226 0,-4.328 1.08,-7.351 2.162,-9.298 6.051,1.295 21.189,18.597 23.568,18.597 0.868,0 1.299,-0.65 1.299,-1.947 0,-15.57 -22.924,-39.357 -38.492,-39.357 -11.678,0 -18.814,6.053 -18.814,19.461 C -4.973,-20.112 -1.945,-9.517 0,0"
             style="fill:#373771;fill-opacity:1;fill-rule:nonzero;stroke:none"
             id="path190" /></g><g
           id="g192"
           transform="translate(755.0215,165.0605)"><path
             d="m 0,0 c 0,-4.324 2.164,-8.215 5.623,-12.54 9.297,-11.246 18.813,-21.408 18.813,-37.192 0,-25.953 -23.786,-46.063 -49.954,-46.063 -14.92,0 -32.003,9.732 -32.003,26.598 0,7.352 4.755,11.894 8.65,14.056 4.973,-13.409 13.408,-25.299 26.383,-25.95 10.16,0 16.648,5.625 16.648,17.302 0,10.16 -9.08,17.298 -17.299,26.597 -5.621,6.704 -8.65,15.137 -8.65,23.571 0,27.895 28.113,40.002 52.98,40.002 7.786,0 11.03,-1.512 12.325,-6.485 0,-4.325 -1.942,-8.217 -8.434,-12.759 -4.326,4.324 -8.65,6.271 -12.539,6.271 C 3.895,13.408 0,8.437 0,0"
             style="fill:#373771;fill-opacity:1;fill-rule:nonzero;stroke:none"
             id="path194" /></g><g
           id="g196"
           transform="translate(555.8848,32.0762)"><path
             d="m 0,0 c 0.713,-2.588 3.297,-4.073 6.414,-4.073 3.785,0 6.236,1.824 6.236,5.261 0,1.91 -1.025,3.395 -2.806,4.795 -3.475,2.758 -8.063,4.71 -8.063,9.59 0,6.705 6.282,11.118 13.274,11.118 3.652,0 6.859,-0.763 6.859,-3.309 0,-1.444 -1.559,-3.056 -2.939,-3.65 -1.426,2.164 -2.985,3.48 -5.969,3.48 -3.162,0 -5.256,-1.442 -5.256,-4.328 0,-2.589 1.514,-3.565 7.527,-7.978 2.272,-1.952 3.698,-4.031 3.698,-7.045 0,-6.916 -7.618,-11.499 -14.52,-11.499 -3.787,0 -8.865,1.485 -8.865,4.54 0,1.698 1.738,3.862 4.32,4.583 C -0.178,0.977 -0.133,0.51 0,0"
             style="fill:#373771;fill-opacity:1;fill-rule:nonzero;stroke:none"
             id="path198" /></g><g
           id="g200"
           transform="translate(583.9883,48.1162)"><path
             d="m 0,0 c 0.445,1.952 0.711,3.649 0.801,5.135 0.045,0.891 0.178,1.952 -1.026,2.419 -0.222,0.043 -0.355,0.212 -0.445,0.425 -0.133,0.423 -0.133,0.423 0.135,0.593 1.826,1.019 4.098,1.613 5.656,1.613 0.846,0 1.826,-0.212 2.361,-0.849 C 8.061,8.699 8.061,7.681 7.928,6.917 6.189,-0.127 4.32,-7.129 2.85,-14.215 2.494,-15.913 2.182,-17.44 2.182,-18.586 c 0,-1.103 0.355,-2.164 1.023,-3.098 0,-0.933 -4.185,-1.655 -5.389,-1.655 -1.959,0 -2.539,1.019 -2.539,2.716 0,1.103 0.313,2.674 0.668,4.074 C -2.762,-11.627 -1.115,-4.965 0,0"
             style="fill:#373771;fill-opacity:1;fill-rule:nonzero;stroke:none"
             id="path202" /></g><g
           id="g204"
           transform="translate(612.8926,24.8203)"><path
             d="m 0,0 c -0.803,0 -1.738,1.23 -2.449,2.843 -0.403,0.933 -6.104,14.894 -7.528,18.459 -0.267,0.678 -0.445,1.358 -0.712,1.994 -2.094,-7.468 -4.233,-17.186 -4.233,-19.18 0,-1.273 0.313,-2.377 0.981,-3.182 C -15.545,0.339 -17.016,0 -18.129,0 -20,0 -20.801,0.764 -20.801,2.461 c 0,1.994 1.559,6.662 3.074,12.179 1.559,5.643 3.563,12.687 3.563,14.554 0,0.934 -0.268,1.741 -0.803,2.419 1.694,1.231 3.565,1.952 4.856,1.952 1.961,0 3.162,-1.909 4.72,-6.789 2.495,-7.765 5.301,-15.701 6.995,-18.968 0.978,2.757 1.736,6.323 2.582,9.674 1.293,5.093 2.138,9.463 2.138,11.967 0,1.359 -0.312,2.461 -0.845,3.268 1.513,0.637 2.804,0.975 4.007,0.975 2.184,0 2.672,-1.357 2.672,-2.842 0,-0.509 -0.043,-1.019 -0.133,-1.486 C 11.893,28.304 4.898,2.716 4.588,0.679 3.117,0.212 1.559,0 0,0"
             style="fill:#373771;fill-opacity:1;fill-rule:nonzero;stroke:none"
             id="path206" /></g><g
           id="g208"
           transform="translate(649.0566,50.1113)"><path
             d="m 0,0 c -0.848,3.479 -2.406,5.219 -5.701,5.219 -7.127,0 -10.735,-11.414 -10.735,-18.713 0,-4.923 2.004,-7.894 6.37,-7.894 3.027,0 6.724,1.825 9.621,4.456 0.355,-0.933 0.623,-1.697 0.623,-2.292 0,-3.139 -6.949,-6.407 -13.229,-6.407 -7.439,0 -10.512,4.201 -10.512,11.67 0,11.457 8.909,22.66 20.176,22.66 4.233,0 7.573,-1.273 7.573,-4.286 C 4.186,2.461 2.537,1.061 0,0"
             style="fill:#373771;fill-opacity:1;fill-rule:nonzero;stroke:none"
             id="path210" /></g><g
           id="g212"
           transform="translate(669.9434,58.0889)"><path
             d="M 0,0 C 1.781,0 3.428,0.17 4.676,0.17 6.457,0.17 7.17,0 7.75,-0.594 7.438,-2.631 6.189,-5.008 4.23,-5.008 c -0.535,0 -1.38,1.062 -3.742,1.062 l -1.646,0 c -1.248,0 -2.406,0.085 -3.342,0.085 l -1.959,0 c 0.4,-0.425 0.533,-0.849 0.533,-1.274 0,-0.212 0,-0.467 -0.088,-0.678 -0.535,-2.419 -1.158,-5.177 -1.916,-8.148 l 2.629,0 c 2.85,0 5.701,0.297 7.883,0.637 0,-0.34 -0.045,-0.637 -0.133,-1.019 -0.98,-3.394 -3.607,-3.607 -7.217,-3.607 l -2.671,0 -1.336,0 c -0.623,-1.867 -1.604,-5.432 -1.604,-7.723 0,-3.437 3.074,-3.14 4.943,-3.14 4.5,0 8.018,1.825 9.131,1.825 0,-5.305 -4.453,-5.984 -11.09,-5.984 -2.093,0 -4.142,0.042 -6.191,0.042 -3.295,0 -3.785,1.529 -3.785,3.82 0,1.655 0.49,3.946 0.978,5.813 2.229,8.063 4.055,14.173 4.055,17.738 0,0.636 0.043,1.4 -0.223,1.316 -0.58,-0.128 -1.158,-0.128 -1.425,-0.128 -0.135,0.043 -0.178,0.255 -0.135,0.722 0,0.381 0.09,0.806 0.267,1.188 0.803,1.527 1.204,1.824 2.54,1.951 C -7.572,-0.17 -3.787,0 0,0"
             style="fill:#373771;fill-opacity:1;fill-rule:nonzero;stroke:none"
             id="path214" /></g><g
           id="g216"
           transform="translate(705.8828,27.2383)"><path
             d="m 0,0 c 0,-0.551 -0.268,-1.315 -1.07,-2.631 -1.291,0.637 -2.805,0.68 -4.276,0.68 l -4.543,0 c -1.023,0 -2.627,-0.043 -4.052,-0.085 -1.559,-0.043 -3.342,0.509 -3.52,1.994 0,1.146 0.357,1.867 0.891,2.674 0.847,-0.128 2.228,-0.425 3.207,-0.425 0.668,0 1.336,0.043 1.871,0.085 0.222,0.509 0.4,1.019 0.535,1.57 1.914,7.341 4.008,15.87 5.566,22.617 -1.869,-0.296 -4.185,-0.805 -5.789,-1.315 -1.113,-0.339 -1.781,0.297 -1.781,1.697 0,1.359 0.223,2.292 0.668,3.311 2.85,0 8.773,0.212 12.426,1.485 0.803,-0.891 1.248,-1.783 1.248,-2.589 0,-0.339 -0.045,-0.721 -0.18,-1.188 -2.049,-8.571 -4.408,-17.356 -6.324,-25.8 0.623,0 1.158,0.042 1.648,0.085 C -1.471,2.25 0,1.358 0,0"
             style="fill:#373771;fill-opacity:1;fill-rule:nonzero;stroke:none"
             id="path218" /></g><g
           id="g220"
           transform="translate(723.3828,55.2461)"><path
             d="m 0,0 c -3.785,0 -5.566,-3.353 -5.566,-7.639 0,-3.055 1.558,-4.838 4.41,-4.838 1.379,0 3.385,0.764 5.076,1.741 0.402,1.57 0.625,3.394 0.668,4.88 C 4.588,-2.504 3.387,0 0,0 m -9.441,-30.766 c -2.895,0 -4.588,0.976 -4.588,3.48 0,1.103 0.445,1.994 0.758,2.504 0.755,-0.594 1.826,-1.782 4.23,-1.782 5.746,0 10.602,6.874 12.383,12.857 -2.584,-2.291 -5.211,-3.098 -7.44,-3.098 -4.72,0 -7.482,2.546 -7.482,7.214 0,7.087 5.969,12.986 13.273,12.986 6.592,0 9.176,-3.226 9.176,-9.803 -0.223,-10.652 -8.73,-24.358 -20.31,-24.358"
             style="fill:#373771;fill-opacity:1;fill-rule:nonzero;stroke:none"
             id="path222" /></g><g
           id="g224"
           transform="translate(748.0996,39.9688)"><path
             d="m 0,0 c 3.564,4.329 5.791,8.105 5.836,11.076 0,1.994 -1.871,3.522 -3.92,3.522 -2.406,0 -4.855,-1.188 -6.414,-3.352 -0.445,-0.425 -0.891,-0.892 -1.514,-1.061 -0.625,0.976 -1.025,1.867 -1.025,2.885 0,3.438 5.523,5.687 11.092,5.687 5.254,0 8.55,-2.164 8.55,-6.747 0,-2.631 -1.291,-5.347 -3.384,-8.233 C 7.84,1.825 6.014,-0.254 3.92,-2.376 c -1.068,-1.103 -7.393,-6.959 -8.285,-7.851 1.648,-0.042 3.029,-0.085 4.232,-0.085 1.246,0 2.272,0.043 3.252,0.085 3.34,0.212 5.256,1.316 6.012,1.316 0.312,0 0.357,-0.637 0.357,-1.231 0,-3.734 -0.802,-5.049 -4.277,-5.049 -1.914,0 -5.211,0.212 -8.684,0.212 -2.941,0 -5.791,-0.254 -7.527,-0.254 -0.535,0 -1.115,0 -1.293,0.17 -0.4,0.381 -0.623,1.782 -0.623,2.502 0,0.382 0.045,0.68 0.178,0.892 C -8.24,-8.147 -3.652,-4.455 0,0"
             style="fill:#373771;fill-opacity:1;fill-rule:nonzero;stroke:none"
             id="path226" /></g><g
           id="g228"
           transform="translate(779.0527,55.5)"><path
             d="m 0,0 c -2.984,0 -4.678,-1.867 -4.678,-4.752 0,-2.08 1.426,-4.074 3.43,-5.771 2.674,1.824 4.723,4.328 4.723,7.128 C 3.475,-1.23 2.137,0 0,0 m -4.275,-14.937 c -3.297,-2.249 -5.614,-4.964 -5.614,-8.444 0,-2.759 1.426,-4.371 4.321,-4.371 3.474,0 6.324,2.589 6.324,5.644 0,2.419 -2.137,4.795 -5.031,7.171 m 5.744,2.419 c 3.429,-2.377 5.213,-4.922 5.213,-7.808 0,-6.832 -6.594,-10.694 -13.541,-10.694 -6.147,0 -9.489,2.631 -9.489,7.299 0,4.413 4.01,7.978 9.489,10.779 -2.094,1.697 -3.653,4.031 -3.653,6.535 0,5.643 5.301,9.675 11.758,9.675 5.301,0 8.24,-2.038 8.24,-5.856 0,-4.116 -2.894,-7.214 -8.017,-9.93"
             style="fill:#373771;fill-opacity:1;fill-rule:nonzero;stroke:none"
             id="path230" /></g></g></g></g></svg>